<svg viewBox="0 0 120 120" xmlns="http://www.w3.org/2000/svg">
  <circle cx="60" cy="60" r="56" fill="none" stroke="#C89B4A" stroke-width="2"/>
  <path d="M60,55 C52,45 50,28 60,15 C70,28 68,45 60,55 Z" fill="#1E3A2B" transform="rotate(0 60 55)"/>
  <path d="M60,55 C52,45 50,28 60,15 C70,28 68,45 60,55 Z" fill="#1E3A2B" transform="rotate(60 60 55)"/>
  <path d="M60,55 C52,45 50,28 60,15 C70,28 68,45 60,55 Z" fill="#1E3A2B" transform="rotate(120 60 55)"/>
  <path d="M60,55 C52,45 50,28 60,15 C70,28 68,45 60,55 Z" fill="#1E3A2B" transform="rotate(180 60 55)"/>
  <path d="M60,55 C52,45 50,28 60,15 C70,28 68,45 60,55 Z" fill="#1E3A2B" transform="rotate(240 60 55)"/>
  <path d="M60,55 C52,45 50,28 60,15 C70,28 68,45 60,55 Z" fill="#1E3A2B" transform="rotate(300 60 55)"/>
  <circle cx="60" cy="55" r="3.5" fill="#C89B4A"/>
  <path d="M57,95 C58,85 59,70 60,58 C61,70 62,85 63,95 Z" fill="#1E3A2B"/>
  <path d="M58,94 C50,96 44,99 38,104" fill="none" stroke="#1E3A2B" stroke-width="2" stroke-linecap="round"/>
  <path d="M62,94 C70,96 76,99 82,104" fill="none" stroke="#1E3A2B" stroke-width="2" stroke-linecap="round"/>
</svg>
