<svg viewBox="0 0 420 140" xmlns="http://www.w3.org/2000/svg">
  <g transform="translate(14,8) scale(0.85)">
    <circle cx="60" cy="60" r="56" fill="none" stroke="#C89B4A" stroke-width="2"/>
    <path d="M60,55 C52,45 50,28 60,15 C70,28 68,45 60,55 Z" fill="#F7F1E6" transform="rotate(0 60 55)"/>
    <path d="M60,55 C52,45 50,28 60,15 C70,28 68,45 60,55 Z" fill="#F7F1E6" transform="rotate(60 60 55)"/>
    <path d="M60,55 C52,45 50,28 60,15 C70,28 68,45 60,55 Z" fill="#F7F1E6" transform="rotate(120 60 55)"/>
    <path d="M60,55 C52,45 50,28 60,15 C70,28 68,45 60,55 Z" fill="#F7F1E6" transform="rotate(180 60 55)"/>
    <path d="M60,55 C52,45 50,28 60,15 C70,28 68,45 60,55 Z" fill="#F7F1E6" transform="rotate(240 60 55)"/>
    <path d="M60,55 C52,45 50,28 60,15 C70,28 68,45 60,55 Z" fill="#F7F1E6" transform="rotate(300 60 55)"/>
    <circle cx="60" cy="55" r="3.5" fill="#C89B4A"/>
    <path d="M57,95 C58,85 59,70 60,58 C61,70 62,85 63,95 Z" fill="#F7F1E6"/>
    <path d="M58,94 C50,96 44,99 38,104" fill="none" stroke="#F7F1E6" stroke-width="2" stroke-linecap="round"/>
    <path d="M62,94 C70,96 76,99 82,104" fill="none" stroke="#F7F1E6" stroke-width="2" stroke-linecap="round"/>
  </g>
  <text x="145" y="68" font-family="'Cormorant Garamond', Georgia, 'Times New Roman', serif" font-size="38" letter-spacing="3" fill="#F7F1E6">JABAMIAH</text>
  <text x="146" y="92" font-family="Inter, Helvetica, Arial, sans-serif" font-size="12" letter-spacing="4" fill="#C89B4A">MÉDECINE PARALLÈLE</text>
</svg>
